# xmcd CD database file
#
# Track frame offsets:
#	150
#	25622
#	43537
#	66394
#	88179
#	108438
#	136958
#	175086
#	210344
#
# Disc length: 3048 seconds
#
# Revision: 0
# Processed by: cddbd v1.5.2PL0 Copyright (c) Steve Scherf et al.
# Submitted via: CDex 1.51
#
DISCID=730be609
DTITLE=Jim Pugliese - Phase III
DYEAR=2008
DGENRE=Jazz
TTITLE0=Phase and Confused
TTITLE1=Hundo
TTITLE2=Fresh
TTITLE3=New Cued
TTITLE4=Intro And Paradiso
TTITLE5=Slipped
TTITLE6=Fakey Funk # 1
TTITLE7=Calhaitian
TTITLE8=Kariga Mombe
EXTD=YEAR: 2008
EXTT0=
EXTT1=
EXTT2=
EXTT3=
EXTT4=
EXTT5=
EXTT6=
EXTT7=
EXTT8=
PLAYORDER=
